<svg width="608" height="385" viewBox="0 0 608 385" fill="none" xmlns="http://www.w3.org/2000/svg">
<g clip-path="url(#clip0_1_2273)">
<path d="M537.7 315.662C532.911 318.393 530.918 325.674 536.335 330.157L528.328 334.78C526.988 335.554 526.011 336.828 525.61 338.322C525.21 339.817 525.419 341.409 526.193 342.749L529.11 347.801C529.496 348.471 530.133 348.959 530.881 349.16C531.628 349.36 532.424 349.255 533.094 348.868L555.827 335.743L551.452 328.166L556.504 325.249L560.879 332.827L583.612 319.702C584.282 319.315 584.771 318.678 584.971 317.931C585.171 317.183 585.066 316.387 584.68 315.717L581.763 310.666C580.989 309.326 579.715 308.348 578.221 307.948C576.727 307.547 575.134 307.757 573.794 308.53L565.787 313.153C563.974 303.187 549.491 303.769 548.476 313.853L548.145 316.604L545.567 315.465C542.678 314.135 539.912 314.419 537.7 315.662ZM540.567 320.979C542.815 319.681 545.527 321.752 544.854 324.262C544.181 326.773 540.797 327.211 539.499 324.963C539.113 324.293 539.008 323.497 539.208 322.75C539.408 322.002 539.897 321.365 540.567 320.979ZM555.722 312.229C557.97 310.931 560.682 313.002 560.009 315.512C559.337 318.023 555.953 318.461 554.655 316.213C554.268 315.543 554.163 314.747 554.363 314C554.564 313.252 555.052 312.615 555.722 312.229ZM534.552 351.394L546.219 371.601C546.992 372.941 548.267 373.919 549.761 374.319C551.255 374.72 552.848 374.51 554.187 373.737L594.602 350.403C595.942 349.63 596.919 348.356 597.32 346.861C597.72 345.367 597.511 343.775 596.737 342.435L585.07 322.227L562.337 335.352L574.004 355.56L568.952 358.476L557.285 338.269L534.552 351.394Z" fill="#292554"/>
</g>
<g clip-path="url(#clip1_1_2273)">
<path d="M208.233 271.409C205.188 269.63 200.517 270.854 199.765 275.29L194.643 272.332C193.785 271.837 192.767 271.703 191.811 271.96C190.855 272.216 190.039 272.841 189.545 273.698L187.679 276.93C187.431 277.359 187.364 277.868 187.492 278.346C187.62 278.824 187.933 279.232 188.362 279.479L202.906 287.877L205.705 283.029L208.937 284.895L206.138 289.743L220.682 298.14C221.111 298.387 221.62 298.454 222.098 298.326C222.576 298.198 222.984 297.885 223.231 297.457L225.097 294.225C225.592 293.367 225.726 292.349 225.47 291.393C225.214 290.437 224.588 289.621 223.731 289.127L218.608 286.169C223.55 281.976 218.595 274.138 212.683 276.801L211.053 277.497L210.86 275.705C210.672 273.679 209.63 272.237 208.233 271.409ZM206.205 274.698C207.643 275.529 207.363 277.694 205.757 278.124C204.151 278.555 202.825 276.82 203.656 275.381C203.903 274.953 204.311 274.64 204.789 274.512C205.267 274.384 205.776 274.451 206.205 274.698ZM215.901 280.296C217.339 281.127 217.059 283.292 215.453 283.722C213.847 284.153 212.522 282.418 213.352 280.979C213.599 280.551 214.007 280.238 214.485 280.11C214.963 279.982 215.472 280.049 215.901 280.296ZM187.429 281.095L179.964 294.024C179.47 294.881 179.335 295.9 179.592 296.856C179.848 297.812 180.473 298.627 181.33 299.122L207.187 314.05C208.044 314.545 209.063 314.679 210.019 314.423C210.975 314.167 211.79 313.541 212.285 312.684L219.749 299.756L205.205 291.359L197.741 304.287L194.509 302.421L201.973 289.493L187.429 281.095Z" fill="#292554"/>
</g>
<path d="M504.094 211.16C503.75 210.742 503.254 210.478 502.715 210.426C502.176 210.374 501.639 210.538 501.221 210.882L492.305 218.224C491.967 218.502 491.728 218.881 491.622 219.306C491.516 219.731 491.55 220.179 491.718 220.583C492.129 221.572 492.852 222.282 493.576 222.787L487.257 227.991C486.839 228.335 486.575 228.831 486.523 229.37C486.471 229.909 486.635 230.446 486.979 230.864C487.856 231.93 489.026 232.642 490.112 233.12L484.241 237.955C483.972 238.177 483.764 238.464 483.637 238.789C483.511 239.114 483.469 239.466 483.517 239.811C483.565 240.157 483.701 240.484 483.911 240.762C484.122 241.04 484.4 241.26 484.72 241.4C486.077 241.997 487.494 242.465 488.913 242.893C490.468 243.366 492.4 243.871 494.614 244.29L493.046 247.814C492.915 248.11 492.855 248.433 492.873 248.756C492.891 249.079 492.985 249.393 493.148 249.672C493.311 249.952 493.539 250.188 493.811 250.363C494.083 250.537 494.393 250.644 494.715 250.675L502.844 251.462C503.166 251.494 503.491 251.448 503.792 251.329C504.093 251.21 504.361 251.022 504.575 250.779C504.788 250.536 504.941 250.245 505.02 249.932C505.1 249.618 505.104 249.29 505.032 248.975L504.169 245.216C506.424 245.229 508.418 245.104 510.031 244.94C511.506 244.79 512.997 244.604 514.444 244.276C514.784 244.199 515.097 244.036 515.356 243.802C515.614 243.569 515.809 243.274 515.921 242.945C516.034 242.615 516.06 242.262 515.997 241.92C515.935 241.577 515.786 241.257 515.565 240.988L510.73 235.117C511.888 234.858 513.173 234.381 514.238 233.504C514.656 233.16 514.92 232.664 514.972 232.125C515.024 231.586 514.86 231.048 514.516 230.63L509.313 224.311C510.121 223.955 510.967 223.397 511.56 222.504C511.802 222.14 511.921 221.707 511.899 221.27C511.876 220.832 511.714 220.414 511.436 220.076L504.094 211.16Z" fill="#292554"/>
<g clip-path="url(#clip2_1_2273)">
<path d="M153.303 51.2196C153.284 50.6786 153.05 50.1676 152.654 49.7988C152.257 49.4301 151.731 49.2339 151.19 49.2533L139.648 49.6705C139.21 49.6863 138.789 49.8424 138.447 50.1157C138.105 50.3889 137.86 50.7649 137.748 51.1881C137.473 52.2237 137.617 53.2269 137.885 54.0681L129.705 54.3637C129.164 54.3833 128.653 54.6171 128.284 55.0134C127.915 55.4098 127.719 55.9364 127.739 56.4775C127.789 57.8567 128.285 59.1331 128.858 60.1728L121.257 60.4475C120.909 60.4603 120.569 60.5621 120.271 60.7434C119.973 60.9246 119.727 61.1792 119.555 61.4828C119.383 61.7864 119.292 62.1289 119.29 62.4777C119.289 62.8265 119.376 63.1699 119.545 63.4752C120.261 64.774 121.103 66.0062 121.97 67.2086C122.917 68.5279 124.146 70.103 125.65 71.7807L122.264 73.6279C121.98 73.783 121.737 74.0034 121.555 74.2708C121.373 74.5383 121.257 74.8451 121.217 75.1661C121.177 75.4871 121.213 75.8131 121.324 76.1171C121.434 76.4212 121.615 76.6946 121.852 76.9149L127.832 82.4772C128.069 82.6976 128.354 82.8586 128.666 82.9469C128.977 83.0352 129.305 83.0482 129.622 82.985C129.939 82.9217 130.237 82.784 130.49 82.5831C130.744 82.3823 130.946 82.124 131.081 81.8296L132.679 78.3193C134.462 79.6994 136.122 80.811 137.503 81.6611C138.766 82.4374 140.063 83.1952 141.412 83.8139C141.729 83.9583 142.077 84.0193 142.424 83.9912C142.771 83.963 143.105 83.8466 143.394 83.6531C143.684 83.4595 143.919 83.1952 144.077 82.8852C144.235 82.5752 144.312 82.2299 144.299 81.8821L144.025 74.2817C145.101 74.7788 146.412 75.1807 147.791 75.1308C148.332 75.1112 148.843 74.8775 149.212 74.4811C149.581 74.0847 149.777 73.5581 149.757 73.0171L149.462 64.8368C150.32 65.0441 151.331 65.1145 152.344 64.7658C152.758 64.6235 153.115 64.3518 153.363 63.9909C153.611 63.63 153.736 63.199 153.721 62.7615L153.303 51.2196Z" fill="#292554"/>
</g>
<path d="M337.397 49.7696C337.002 49.4 336.475 49.2027 335.934 49.2211C335.393 49.2394 334.882 49.4719 334.512 49.8673L326.626 58.3058C326.328 58.6257 326.139 59.0332 326.09 59.4682C326.04 59.9032 326.132 60.3426 326.351 60.7216C326.887 61.6493 327.696 62.2592 328.48 62.6658L322.891 68.6465C322.521 69.0421 322.324 69.5683 322.342 70.1094C322.361 70.6504 322.593 71.1621 322.989 71.5318C323.997 72.4741 325.25 73.0282 326.389 73.3614L321.196 78.9181C320.958 79.1731 320.789 79.4847 320.706 79.8234C320.623 80.1621 320.627 80.5165 320.72 80.8528C320.812 81.1891 320.99 81.4961 321.234 81.7445C321.479 81.9929 321.784 82.1745 322.119 82.2718C323.542 82.6873 325.008 82.9666 326.471 83.2071C328.073 83.4736 330.055 83.7231 332.305 83.8512L331.208 87.5491C331.116 87.8593 331.1 88.1869 331.159 88.5048C331.219 88.8228 331.353 89.122 331.551 89.3779C331.749 89.6337 332.005 89.8388 332.298 89.9763C332.591 90.1138 332.912 90.1798 333.236 90.1688L341.398 89.8923C341.721 89.8815 342.037 89.7939 342.32 89.6369C342.603 89.4799 342.844 89.2579 343.024 88.9893C343.205 88.7206 343.318 88.413 343.356 88.0917C343.394 87.7704 343.356 87.4447 343.243 87.1414L341.899 83.5262C344.137 83.2461 346.097 82.8631 347.676 82.4909C349.119 82.1499 350.573 81.7718 351.965 81.2589C352.291 81.1378 352.581 80.9352 352.807 80.6705C353.033 80.4058 353.188 80.0877 353.256 79.7464C353.325 79.4051 353.305 79.052 353.198 78.7205C353.092 78.3891 352.903 78.0904 352.648 77.8528L347.092 72.6602C348.205 72.2527 349.418 71.6131 350.36 70.6047C350.73 70.2091 350.927 69.6829 350.908 69.1418C350.89 68.6007 350.658 68.0891 350.262 67.7194L344.281 62.1305C345.036 61.6719 345.802 61.0086 346.274 60.0468C346.467 59.6538 346.529 59.2092 346.45 58.7786C346.371 58.3479 346.156 57.9541 345.836 57.6552L337.397 49.7696Z" fill="#292554"/>
<path d="M39.0867 329.459C38.6911 329.09 38.1649 328.892 37.6238 328.911C37.0827 328.929 36.5711 329.162 36.2014 329.557L28.3159 337.995C28.017 338.315 27.8288 338.723 27.7792 339.158C27.7296 339.593 27.8211 340.032 28.0402 340.411C28.5762 341.339 29.3854 341.949 30.1693 342.355L24.5804 348.336C24.2109 348.732 24.0135 349.258 24.0319 349.799C24.0502 350.34 24.2827 350.852 24.6782 351.221C25.6866 352.164 26.9392 352.718 28.0781 353.051L22.8855 358.608C22.6475 358.863 22.4788 359.174 22.3954 359.513C22.3121 359.852 22.3169 360.206 22.4094 360.543C22.5019 360.879 22.679 361.186 22.9239 361.434C23.1687 361.683 23.4731 361.864 23.8081 361.962C25.2317 362.377 26.6977 362.656 28.1603 362.897C29.7628 363.163 31.7446 363.413 33.994 363.541L32.8977 367.239C32.8059 367.549 32.7891 367.877 32.8488 368.195C32.9085 368.512 33.0428 368.812 33.2408 369.068C33.4388 369.323 33.6948 369.529 33.9876 369.666C34.2804 369.804 34.6017 369.87 34.925 369.858L43.087 369.582C43.4104 369.571 43.7265 369.484 44.0093 369.327C44.2922 369.17 44.5337 368.948 44.7139 368.679C44.8941 368.41 45.0079 368.103 45.0459 367.781C45.0839 367.46 45.0451 367.134 44.9325 366.831L43.5884 363.216C45.8261 362.936 47.7865 362.553 49.3652 362.181C50.8082 361.84 52.2621 361.461 53.6543 360.949C53.9807 360.827 54.2706 360.625 54.4967 360.36C54.7227 360.095 54.8773 359.777 54.9458 359.436C55.0143 359.095 54.9943 358.742 54.8879 358.41C54.7815 358.079 54.5921 357.78 54.3377 357.542L48.781 352.35C49.8948 351.942 51.1071 351.303 52.0494 350.294C52.419 349.899 52.6163 349.373 52.5979 348.832C52.5796 348.29 52.3472 347.779 51.9517 347.409L45.9709 341.82C46.7255 341.362 47.4916 340.698 47.9636 339.736C48.1566 339.343 48.2181 338.899 48.1392 338.468C48.0602 338.038 47.845 337.644 47.5251 337.345L39.0867 329.459Z" fill="#292554"/>
<path d="M390.075 201.981C389.673 201.874 389.244 201.93 388.884 202.138C388.523 202.346 388.26 202.689 388.153 203.091L385.854 211.669C385.767 211.994 385.787 212.338 385.91 212.652C386.034 212.965 386.255 213.23 386.541 213.408C387.24 213.843 388.01 213.964 388.689 213.957L387.06 220.036C386.952 220.438 387.008 220.867 387.217 221.227C387.425 221.588 387.768 221.851 388.17 221.958C389.195 222.233 390.245 222.156 391.138 221.97L389.625 227.618C389.555 227.878 389.554 228.15 389.62 228.41C389.686 228.67 389.817 228.909 390.001 229.103C390.186 229.298 390.417 229.442 390.673 229.522C390.929 229.602 391.201 229.615 391.464 229.56C392.58 229.327 393.676 228.987 394.755 228.621C395.939 228.222 397.374 227.675 398.946 226.948L399.54 229.853C399.59 230.097 399.697 230.325 399.852 230.52C400.008 230.714 400.207 230.868 400.434 230.97C400.661 231.072 400.909 231.119 401.157 231.106C401.406 231.094 401.647 231.022 401.863 230.898L407.301 227.758C407.516 227.634 407.699 227.46 407.834 227.251C407.969 227.042 408.053 226.804 408.078 226.557C408.103 226.309 408.069 226.06 407.979 225.828C407.888 225.596 407.744 225.389 407.558 225.224L405.339 223.257C406.756 222.258 407.947 221.289 408.884 220.465C409.739 219.712 410.589 218.93 411.348 218.078C411.526 217.878 411.649 217.636 411.707 217.374C411.765 217.113 411.754 216.841 411.678 216.585C411.601 216.328 411.459 216.096 411.267 215.91C411.075 215.723 410.839 215.589 410.58 215.52L404.932 214.006C405.54 213.327 406.131 212.455 406.406 211.43C406.514 211.028 406.457 210.599 406.249 210.239C406.041 209.878 405.698 209.615 405.296 209.507L399.217 207.878C399.563 207.294 399.843 206.567 399.815 205.744C399.804 205.407 399.685 205.083 399.475 204.82C399.266 204.556 398.978 204.367 398.652 204.28L390.075 201.981Z" fill="#292554"/>
<g clip-path="url(#clip3_1_2273)">
<path d="M133.812 137.431C131.372 138.071 129.628 141.053 131.492 143.676L127.405 144.771C126.721 144.954 126.138 145.402 125.784 146.015C125.43 146.628 125.334 147.357 125.518 148.041L126.208 150.619C126.3 150.961 126.524 151.252 126.83 151.429C127.137 151.606 127.501 151.654 127.843 151.563L139.446 148.454L138.41 144.586L140.988 143.895L142.024 147.763L153.627 144.654C153.969 144.562 154.261 144.339 154.438 144.032C154.615 143.725 154.663 143.361 154.571 143.019L153.88 140.441C153.697 139.757 153.25 139.174 152.636 138.82C152.023 138.466 151.295 138.37 150.611 138.553L146.524 139.648C146.903 135.028 140.432 133.57 138.789 137.907L138.317 139.084L137.313 138.275C136.193 137.345 134.937 137.143 133.812 137.431ZM134.449 140.12C135.597 139.813 136.55 141.05 135.955 142.079C135.361 143.109 133.813 142.902 133.506 141.755C133.414 141.413 133.462 141.049 133.639 140.742C133.816 140.435 134.107 140.212 134.449 140.12ZM142.185 138.047C143.332 137.74 144.285 138.977 143.691 140.007C143.096 141.037 141.548 140.83 141.241 139.682C141.149 139.34 141.197 138.976 141.374 138.669C141.551 138.363 141.843 138.139 142.185 138.047ZM128.188 152.852L130.952 163.166C131.135 163.849 131.583 164.432 132.196 164.786C132.809 165.14 133.537 165.236 134.221 165.053L154.849 159.526C155.533 159.343 156.116 158.895 156.47 158.282C156.824 157.669 156.919 156.941 156.736 156.257L153.973 145.943L142.37 149.052L145.133 159.366L142.555 160.057L139.791 149.743L128.188 152.852Z" fill="#292554"/>
</g>
<g clip-path="url(#clip4_1_2273)">
<path d="M513.269 80.3072C509.077 79.16 503.905 82.108 504.426 87.6288L497.384 85.7418C496.205 85.4261 494.95 85.5914 493.893 86.2013C492.837 86.8113 492.066 87.8161 491.75 88.9945L490.559 93.4377C490.401 94.0269 490.484 94.6547 490.789 95.183C491.094 95.7112 491.596 96.0967 492.186 96.2546L512.18 101.612L513.966 94.9473L518.409 96.1378L516.623 102.803L536.618 108.16C537.207 108.318 537.835 108.235 538.363 107.93C538.891 107.625 539.277 107.123 539.435 106.534L540.625 102.091C540.941 100.912 540.776 99.6566 540.166 98.6001C539.556 97.5435 538.551 96.7726 537.373 96.4568L530.33 94.5698C534.876 88.0016 526.476 80.2505 520.287 85.307L518.569 86.6561L517.767 84.5839C516.897 82.2317 515.196 80.8474 513.269 80.3072ZM511.904 84.8703C513.881 85.4001 514.238 88.0673 512.463 89.0919C510.689 90.1164 508.557 88.4738 509.087 86.4966C509.245 85.9074 509.63 85.405 510.159 85.1C510.687 84.795 511.315 84.7124 511.904 84.8703ZM525.234 88.4419C527.211 88.9717 527.568 91.6389 525.793 92.6635C524.018 93.6881 521.887 92.0455 522.417 90.0683C522.575 89.4791 522.96 88.9767 523.488 88.6717C524.017 88.3667 524.644 88.2841 525.234 88.4419ZM491.59 98.4762L486.828 116.249C486.512 117.427 486.678 118.683 487.288 119.74C487.898 120.796 488.902 121.567 490.081 121.883L525.627 131.407C526.805 131.723 528.061 131.558 529.117 130.948C530.174 130.338 530.945 129.333 531.26 128.155L536.023 110.382L516.028 105.024L511.266 122.797L506.823 121.607L511.585 103.834L491.59 98.4762Z" fill="#292554"/>
</g>
<g clip-path="url(#clip5_1_2273)">
<path d="M461.437 290.475C459.748 286.469 454.235 284.225 450.216 288.046L447.348 281.343C446.868 280.221 445.962 279.336 444.83 278.883C443.697 278.429 442.431 278.444 441.309 278.924L437.08 280.733C436.519 280.973 436.077 281.426 435.85 281.992C435.623 282.559 435.63 283.192 435.87 283.752L444.013 302.783L450.357 300.069L452.167 304.298L445.823 307.012L453.966 326.043C454.206 326.604 454.659 327.047 455.225 327.273C455.791 327.5 456.425 327.493 456.985 327.253L461.214 325.443C462.336 324.963 463.221 324.058 463.675 322.925C464.129 321.793 464.114 320.526 463.634 319.405L460.766 312.702C468.739 312.217 469.642 300.823 461.843 299.082L459.72 298.564L460.854 296.653C462.166 294.516 462.203 292.323 461.437 290.475ZM457.006 292.221C457.811 294.103 455.934 296.031 454.032 295.269C452.13 294.507 452.104 291.816 453.986 291.011C454.547 290.771 455.18 290.764 455.747 290.991C456.313 291.217 456.766 291.66 457.006 292.221ZM462.434 304.908C463.24 306.79 461.363 308.719 459.461 307.956C457.559 307.194 457.533 304.503 459.415 303.698C459.976 303.458 460.609 303.451 461.175 303.678C461.741 303.905 462.194 304.347 462.434 304.908ZM433.756 284.657L416.84 291.896C415.718 292.375 414.833 293.281 414.379 294.414C413.925 295.546 413.94 296.813 414.42 297.934L428.897 331.767C429.377 332.888 430.282 333.773 431.415 334.227C432.547 334.681 433.814 334.666 434.935 334.186L451.852 326.948L443.708 307.917L426.792 315.155L424.983 310.926L441.899 303.688L433.756 284.657Z" fill="#292554"/>
</g>
<g clip-path="url(#clip6_1_2273)">
<path d="M81.9832 245.778C79.6736 249.461 81.0021 255.263 86.438 256.359L82.597 262.556C81.9543 263.593 81.7499 264.843 82.0286 266.031C82.3074 267.218 83.0466 268.247 84.0836 268.889L87.9934 271.313C88.5119 271.634 89.1368 271.736 89.7307 271.597C90.3245 271.458 90.8387 271.088 91.16 270.57L102.065 252.975L96.2002 249.34L98.6236 245.43L104.488 249.065L115.393 231.471C115.715 230.952 115.817 230.327 115.678 229.734C115.538 229.14 115.169 228.626 114.65 228.304L110.74 225.881C109.703 225.238 108.454 225.034 107.266 225.313C106.078 225.591 105.05 226.33 104.407 227.367L100.566 233.565C95.5911 227.315 85.7439 233.118 88.7971 240.503L89.5922 242.539L87.3767 242.708C84.8735 242.861 83.0569 244.089 81.9832 245.778ZM85.9572 248.403C87.0356 246.663 89.6921 247.092 90.1604 249.087C90.6287 251.082 88.4403 252.648 86.7004 251.57C86.182 251.249 85.8124 250.734 85.673 250.141C85.5336 249.547 85.6358 248.922 85.9572 248.403ZM93.2272 236.674C94.3056 234.934 96.9622 235.363 97.4304 237.358C97.8987 239.353 95.7103 240.919 93.9705 239.84C93.452 239.519 93.0824 239.005 92.943 238.411C92.8036 237.817 92.9058 237.192 93.2272 236.674ZM93.115 271.781L108.754 281.475C109.791 282.117 111.041 282.322 112.229 282.043C113.417 281.764 114.445 281.025 115.088 279.988L134.474 248.709C135.117 247.672 135.321 246.422 135.043 245.235C134.764 244.047 134.025 243.019 132.988 242.376L117.348 232.683L106.443 250.277L122.083 259.97L119.659 263.88L104.02 254.187L93.115 271.781Z" fill="#292554"/>
</g>
<g clip-path="url(#clip7_1_2273)">
<path d="M14.7508 31.5452C12.4411 35.2279 13.7697 41.0302 19.2056 42.1264L15.3646 48.3236C14.7219 49.3605 14.5174 50.6103 14.7962 51.798C15.075 52.9857 15.8142 54.0141 16.8511 54.6568L20.761 57.0801C21.2795 57.4015 21.9044 57.5037 22.4982 57.3643C23.0921 57.2249 23.6062 56.8553 23.9276 56.3368L34.8326 38.7425L28.9678 35.1074L31.3912 31.1976L37.256 34.8326L48.161 17.2382C48.4823 16.7197 48.5846 16.0948 48.4452 15.501C48.3058 14.9071 47.9362 14.393 47.4177 14.0716L43.5079 11.6483C42.4709 11.0056 41.2211 10.8011 40.0334 11.0799C38.8457 11.3587 37.8174 12.0978 37.1747 13.1348L33.3337 19.3319C28.3587 13.0825 18.5115 18.8852 21.5647 26.2707L22.3598 28.3058L20.1443 28.475C17.641 28.6283 15.8245 29.8565 14.7508 31.5452ZM18.7248 34.1706C19.8031 32.4307 22.4597 32.8596 22.928 34.8546C23.3962 36.8495 21.2079 38.4156 19.468 37.3372C18.9495 37.0159 18.58 36.5017 18.4406 35.9079C18.3012 35.314 18.4034 34.6891 18.7248 34.1706ZM25.9948 22.441C27.0732 20.7012 29.7297 21.13 30.198 23.125C30.6662 25.12 28.4779 26.686 26.738 25.6076C26.2196 25.2863 25.85 24.7721 25.7106 24.1783C25.5712 23.5844 25.6734 22.9595 25.9948 22.441ZM25.8825 57.5485L41.522 67.2419C42.5589 67.8846 43.8087 68.089 44.9965 67.8102C46.1842 67.5315 47.2125 66.7923 47.8552 65.7553L67.2419 34.4764C67.8846 33.4395 68.0891 32.1897 67.8103 31.002C67.5315 29.8142 66.7923 28.7859 65.7554 28.1432L50.1159 18.4499L39.2109 36.0443L54.8503 45.7376L52.427 49.6475L36.7876 39.9541L25.8825 57.5485Z" fill="#292554"/>
</g>
<path d="M425.5 74L428.902 81.8178L437.388 82.6373L431.004 88.2884L432.847 96.6127L425.5 92.2875L418.153 96.6127L419.996 88.2884L413.612 82.6373L422.098 81.8178L425.5 74Z" fill="#292554"/>
<path d="M71.5 104L74.9018 111.818L83.3882 112.637L77.0042 118.288L78.8473 126.613L71.5 122.288L64.1527 126.613L65.9958 118.288L59.6118 112.637L68.0982 111.818L71.5 104Z" fill="#292554"/>
<path d="M134.252 318.415L141.72 324.898L151.014 321.515L147.155 330.621L153.245 338.414L143.392 337.558L137.863 345.758L135.632 336.123L126.124 333.398L134.598 328.299L134.252 318.415Z" fill="#292554"/>
<path d="M325.085 293.248L332.553 299.731L341.847 296.347L337.988 305.454L344.078 313.246L334.225 312.391L328.696 320.591L326.465 310.956L316.957 308.231L325.431 303.132L325.085 293.248Z" fill="#292554"/>
<path d="M551.761 20.8229L565.894 33.0917L583.48 26.6883L576.179 43.9209L587.703 58.6673L569.058 57.0487L558.595 72.5659L554.372 54.333L536.381 49.1767L552.417 39.5268L551.761 20.8229Z" fill="#292554"/>
<defs>
<clipPath id="clip0_1_2273">
<rect width="70" height="70" fill="white" transform="translate(512 324) rotate(-30)"/>
</clipPath>
<clipPath id="clip1_1_2273">
<rect width="44.7846" height="44.7846" fill="white" transform="translate(195.393 259.837) rotate(30)"/>
</clipPath>
<clipPath id="clip2_1_2273">
<rect width="49" height="49" fill="white" transform="translate(137.496 30.1216) rotate(42.9301)"/>
</clipPath>
<clipPath id="clip3_1_2273">
<rect width="32.0325" height="32.0325" fill="white" transform="translate(121.465 138.072) rotate(-15)"/>
</clipPath>
<clipPath id="clip4_1_2273">
<rect width="55.1995" height="55.1995" fill="white" transform="translate(494.291 70.6263) rotate(15)"/>
</clipPath>
<clipPath id="clip5_1_2273">
<rect width="55.1995" height="55.1995" fill="white" transform="translate(457.32 269.571) rotate(66.8345)"/>
</clipPath>
<clipPath id="clip6_1_2273">
<rect width="55.1995" height="55.1995" fill="white" transform="translate(67.2324 261.151) rotate(-58.2093)"/>
</clipPath>
<clipPath id="clip7_1_2273">
<rect width="55.1995" height="55.1995" fill="white" transform="translate(0 46.9183) rotate(-58.2093)"/>
</clipPath>
</defs>
</svg>
